HIERARCHY
ROOT ui
{
	 OFFSET 0 0 0
	 CHANNELS 3 XPosition YPosition Z Position
	 EndSite
	 {
	 OFFSET 0 -1 0
	 }
}
ROOT li
{
	 OFFSET 0 0 0
	 CHANNELS 3 XPosition YPosition Z Position
	 EndSite
	 {
	 OFFSET 0 -1 0
	 }
}
ROOT ul
{
	 OFFSET 0 0 0
	 CHANNELS 3 XPosition YPosition Z Position
	 EndSite
	 {
	 OFFSET 0 -1 0
	 }
}
ROOT ll
{
	 OFFSET 0 0 0
	 CHANNELS 3 XPosition YPosition Z Position
	 EndSite
	 {
	 OFFSET 0 -1 0
	 }
}
ROOT tt
{
	 OFFSET 0 0 0
	 CHANNELS 3 XPosition YPosition Z Position
	 EndSite
	 {
	 OFFSET 0 -1 0
	 }
}
ROOT tb
{
	 OFFSET 0 0 0
	 CHANNELS 3 XPosition YPosition Z Position
	 EndSite
	 {
	 OFFSET 0 -1 0
	 }
}
ROOT td
{
	 OFFSET 0 0 0
	 CHANNELS 3 XPosition YPosition Z Position
	 EndSite
	 {
	 OFFSET 0 -1 0
	 }
}
ROOT v
{
	 OFFSET 0 0 0
	 CHANNELS 3 XPosition YPosition Z Position
	 EndSite
	 {
	 OFFSET 0 -1 0
	 }
}
ROOT bn
{
	 OFFSET 0 0 0
	 CHANNELS 3 XPosition YPosition Z Position
	 EndSite
	 {
	 OFFSET 0 -1 0
	 }
}
MOTION
Frames: 19
Frame Time: 0.002
-0.013028217315673827	-5.404980182647705E-4	0		0.35968975830078126	-2.3381142578125	0		-1.1135399169921876	-0.05884091186523437	0		-0.7984207763671874	-2.60922314453125	0		1.22781689453125	-0.6244223022460937	0		2.870647216796875	0.1853670654296875	0		4.471900390625	0.17986302185058595	0		5.54217333984375	0.0417693977355957	0		-0.05886721420288086	5.947828125	0		
0.0050316500663757325	-0.014189599990844726	0		0.42035260009765624	-2.3386162109375	0		-1.1101690673828124	-0.05831928253173828	0		-0.8557374267578125	-2.6093525390625	0		1.231263427734375	-0.6235873413085937	0		2.85994580078125	0.18472207641601562	0		4.47041162109375	0.18923727416992187	0		5.54972216796875	0.05209392547607422	0		-0.0705324249267578	5.93779345703125	0		
-0.07359751129150391	-0.006795997142791748	0		0.39285964965820314	-2.3402490234375	0		-1.1069171142578125	-0.057821804046630856	0		-0.7972340698242187	-2.613989501953125	0		1.23150830078125	-0.626704833984375	0		2.901432373046875	0.1979512176513672	0		4.47845849609375	0.18239361572265625	0		5.553001953125	0.05550202941894531	0		-0.18630810546875	5.9299462890625	0		
-0.006414268970489502	-0.0025415558815002444	0		0.412352783203125	-2.33591552734375	0		-1.1196878662109375	-0.05101825714111328	0		-0.8327967529296875	-2.61365576171875	0		1.2257506103515625	-0.6227276000976563	0		2.861357666015625	0.19287863159179688	0		4.4766943359375	0.19173085021972655	0		5.54193994140625	0.05018037033081055	0		-0.06680362701416015	5.94006298828125	0		
-0.0626778450012207	-0.009720999717712403	0		0.3984593200683594	-2.3409208984375	0		-1.1049814453125	-0.060839706420898435	0		-0.7868548583984375	-2.629088134765625	0		1.2346197509765624	-0.6281058959960938	0		2.887259521484375	0.19436346435546875	0		4.474728515625	0.200021484375	0		5.54480322265625	0.04951240539550781	0		-0.06371812057495117	5.93961328125	0		
-0.05995903778076172	-0.00919347095489502	0		0.40663092041015625	-2.3334384765625	0		-1.16724169921875	-0.05909311676025391	0		-0.8407360229492188	-2.625467041015625	0		1.207468505859375	-0.6247813720703125	0		2.880786376953125	0.18747007751464845	0		4.46925439453125	0.19331681823730468	0		5.55747021484375	0.04857201766967773	0		-0.17903067016601562	5.92958544921875	0		
-0.05437703704833984	-0.00577672004699707	0		0.4363988342285156	-2.335459228515625	0		-1.09158544921875	-0.05326984024047852	0		-0.7778551635742188	-2.62433154296875	0		1.2510374755859375	-0.6259912719726562	0		2.904775146484375	0.2118819122314453	0		4.47101904296875	0.20738888549804688	0		5.56416943359375	0.058679264068603514	0		-0.04481481552124023	5.950306640625	0		
0.021855409622192384	-0.010872101783752442	0		0.4349076232910156	-2.33988671875	0		-1.105101318359375	-0.04563615036010742	0		-0.78033203125	-2.62988427734375	0		1.2393426513671875	-0.6301143798828125	0		2.871736572265625	0.19639352416992187	0		4.4863623046875	0.210094970703125	0		5.566533203125	0.0617850341796875	0		-0.19180882263183593	5.922796875	0		
0.009305062294006348	0.003820749044418335	0		0.4264555969238281	-2.3332275390625	0		-1.0952269287109375	-0.05953656387329102	0		-0.793811767578125	-2.62625927734375	0		1.2415718994140625	-0.629588623046875	0		2.885013671875	0.20387667846679688	0		4.48849658203125	0.21098771667480468	0		5.5686845703125	0.06279987335205078	0		-0.17609750366210938	5.93387109375	0		
0.011309762954711915	0.004157487869262695	0		0.4115880432128906	-2.33849853515625	0		-1.089134765625	-0.055398853302001956	0		-0.7708807983398438	-2.64343212890625	0		1.2436434326171875	-0.629121826171875	0		2.87100048828125	0.20484341430664063	0		4.48633740234375	0.20488027954101562	0		5.5665205078125	0.055806636810302734	0		-0.04131781387329102	5.95247021484375	0		
0.027890409469604492	-0.009855931282043456	0		0.4416808166503906	-2.338739501953125	0		-1.0872607421875	-0.055218807220458986	0		-0.768752197265625	-2.643220703125	0		1.2545313720703124	-0.6308945922851562	0		2.895108154296875	0.217963623046875	0		4.47445263671875	0.2188905029296875	0		5.57670654296875	0.07247575378417968	0		-0.040035003662109374	5.9527529296875	0		
0.017981595993041992	0.007625764846801758	0		0.4207853698730469	-2.330995361328125	0		-1.152336181640625	-0.04572550201416015	0		-0.7667659912109375	-2.64305126953125	0		1.256333251953125	-0.6305396728515625	0		2.883552001953125	0.20473446655273436	0		4.49817236328125	0.21909556579589845	0		5.574283203125	0.06530902099609374	0		-0.03883604431152344	5.9529892578125	0		
0.03126335906982422	-0.009416348457336425	0		0.443424560546875	-2.340186279296875	0		-1.0897779541015624	-0.04985608673095703	0		-0.77003466796875	-2.64881982421875	0		1.254933837890625	-0.6341775512695312	0		2.9074189453125	0.21772779846191406	0		4.4819052734375	0.22603240966796875	0		5.58006494140625	0.07389376831054688	0		-0.037713451385498045	5.9531806640625	0		
-0.05890399932861328	0.007578990936279297	0		0.4191637268066406	-2.33747998046875	0		-1.0941600341796875	-0.04467022705078125	0		-0.7723963623046874	-2.6526474609375	0		1.2475574951171875	-0.63074951171875	0		2.897776611328125	0.21132594299316407	0		4.5012763671875	0.22017071533203125	0		5.57325244140625	0.058640552520751954	0		-0.17005633544921875	5.935	0		
0.01945969009399414	0.005145636081695557	0		0.4466807250976563	-2.339860595703125	0		-1.155924560546875	-0.05237613296508789	0		-0.7728318481445312	-2.653551513671875	0		1.2548798828125	-0.6366720581054688	0		2.87420654296875	0.21413607788085937	0		4.4806650390625	0.22103285217285157	0		5.57880712890625	0.06705603790283203	0		-0.050873313903808594	5.9437373046875	0		
-0.041496566772460934	-0.006546030998229981	0		0.3972642517089844	-2.331749267578125	0		-1.1464927978515624	-0.045538337707519534	0		-0.758520751953125	-2.660787109375	0		1.259268798828125	-0.6335863647460938	0		2.889322021484375	0.20610391235351563	0		4.4819423828125	0.22137631225585938	0		5.5858935546875	0.05734914779663086	0		-0.1662021484375	5.9321171875	0		
0.03971720123291016	-0.006107829093933106	0		0.4555650329589844	-2.33283056640625	0		-1.1412420654296875	-0.04264822387695313	0		-0.7680302734375	-2.65257958984375	0		1.2604915771484375	-0.6334896850585937	0		2.900094970703125	0.2361014862060547	0		4.49135693359375	0.23348103332519532	0		5.58543798828125	0.07570941162109375	0		-0.032893524169921876	5.95251171875	0		
-0.05392823028564453	0.007768400192260742	0		0.45062725830078126	-2.339697021484375	0		-1.0773729248046875	-0.05495186614990234	0		-0.73698095703125	-2.661213134765625	0		1.25855810546875	-0.6363811645507812	0		2.886709228515625	0.2125039825439453	0		4.5054814453125	0.23541273498535156	0		5.58237451171875	0.06802803802490234	0		-0.03401631927490235	5.95454248046875	0		
0.03877334976196289	-0.009093158721923828	0		0.4496661682128906	-2.342682861328125	0		-1.158219482421875	-0.04740913009643555	0		-0.7748840942382812	-2.66150830078125	0		1.259596923828125	-0.6363792724609375	0		2.877977783203125	0.22575776672363282	0		4.48449462890625	0.2359627227783203	0		5.5792314453125	0.06026066970825195	0		-0.17983062744140624	5.92439599609375	0		
